HIERARCHY
ROOT Hips
{
	OFFSET -0.066283 88.859909 3.106752
	CHANNELS 6 Xposition Yposition Zposition Zrotation Yrotation Xrotation 
	JOINT Spine
	{
		OFFSET -0.000000 8.814246 -2.080107
		CHANNELS 3 Zrotation Yrotation Xrotation
		JOINT Spine1
		{
			OFFSET -0.000000 8.844141 0.000000
			CHANNELS 3 Zrotation Yrotation Xrotation
			JOINT Spine2
			{
				OFFSET 0.000000 11.682268 0.000000
				CHANNELS 3 Zrotation Yrotation Xrotation
				JOINT Spine3
				{
					OFFSET -0.000000 11.746700 0.000000
					CHANNELS 3 Zrotation Yrotation Xrotation
					JOINT Neck
					{
						OFFSET -0.000000 17.658264 0.000000
						CHANNELS 3 Zrotation Yrotation Xrotation
						JOINT Neck1
						{
							OFFSET 0.000000 5.101515 -0.000000
							CHANNELS 3 Zrotation Yrotation Xrotation
							JOINT Head
							{
								OFFSET -0.000000 5.101515 -0.000000
								CHANNELS 3 Zrotation Yrotation Xrotation
								JOINT HeadEnd
								{
									OFFSET 0.000000 11.655085 -0.000000
									CHANNELS 3 Zrotation Yrotation Xrotation
									End Site
									{
										OFFSET 0.000000 0.000000 0.000000
									}
								}
							}
						}
					}
					JOINT RightShoulder
					{
						OFFSET -2.625389 11.175210 -0.000000
						CHANNELS 3 Zrotation Yrotation Xrotation
						JOINT RightArm
						{
							OFFSET 0.000000 10.434715 -0.000000
							CHANNELS 3 Zrotation Yrotation Xrotation
							JOINT RightForeArm
							{
								OFFSET -0.000000 29.628420 0.000000
								CHANNELS 3 Zrotation Yrotation Xrotation
								JOINT RightHand
								{
									OFFSET -0.000000 22.857611 0.000000
									CHANNELS 3 Zrotation Yrotation Xrotation
									JOINT RightHandThumb1
									{
										OFFSET -2.867323 3.959563 2.944291
										CHANNELS 3 Zrotation Yrotation Xrotation
										JOINT RightHandThumb2
										{
											OFFSET -0.000000 3.350399 0.000000
											CHANNELS 3 Zrotation Yrotation Xrotation
											JOINT RightHandThumb3
											{
												OFFSET -0.000000 3.756509 -0.000000
												CHANNELS 3 Zrotation Yrotation Xrotation
												JOINT RightHandThumb4
												{
													OFFSET -0.000000 3.147345 0.000000
													CHANNELS 3 Zrotation Yrotation Xrotation
													End Site
													{
														OFFSET 0.000000 0.000000 0.000000
													}
												}
											}
										}
									}
									JOINT RightHandIndex1
									{
										OFFSET -0.086752 10.030893 2.345280
										CHANNELS 3 Zrotation Yrotation Xrotation
										JOINT RightHandIndex2
										{
											OFFSET 0.000000 4.061090 -0.000000
											CHANNELS 3 Zrotation Yrotation Xrotation
											JOINT RightHandIndex3
											{
												OFFSET 0.000000 3.248873 -0.000000
												CHANNELS 3 Zrotation Yrotation Xrotation
												JOINT RightHandIndex4
												{
													OFFSET 0.000000 2.639709 0.000000
													CHANNELS 3 Zrotation Yrotation Xrotation
													End Site
													{
														OFFSET 0.000000 0.000000 0.000000
													}
												}
											}
										}
									}
									JOINT RightHandMiddle1
									{
										OFFSET 0.104102 9.502952 0.006768
										CHANNELS 3 Zrotation Yrotation Xrotation
										JOINT RightHandMiddle2
										{
											OFFSET 0.000000 4.568727 0.000000
											CHANNELS 3 Zrotation Yrotation Xrotation
											JOINT RightHandMiddle3
											{
												OFFSET 0.000000 3.654981 -0.000000
												CHANNELS 3 Zrotation Yrotation Xrotation
												JOINT RightHandMiddle4
												{
													OFFSET -0.000000 2.741236 0.000000
													CHANNELS 3 Zrotation Yrotation Xrotation
													End Site
													{
														OFFSET 0.000000 0.000000 0.000000
													}
												}
											}
										}
									}
									JOINT RightHandRing1
									{
										OFFSET 0.086752 8.921708 -2.267442
										CHANNELS 3 Zrotation Yrotation Xrotation
										JOINT RightHandRing2
										{
											OFFSET 0.000000 4.061090 -0.000000
											CHANNELS 3 Zrotation Yrotation Xrotation
											JOINT RightHandRing3
											{
												OFFSET -0.000000 3.654981 0.000000
												CHANNELS 3 Zrotation Yrotation Xrotation
												JOINT RightHandRing4
												{
													OFFSET -0.000000 2.741236 0.000000
													CHANNELS 3 Zrotation Yrotation Xrotation
													End Site
													{
														OFFSET 0.000000 0.000000 0.000000
													}
												}
											}
										}
									}
									JOINT RightHandPinky1
									{
										OFFSET -0.173504 7.976997 -4.467199
										CHANNELS 3 Zrotation Yrotation Xrotation
										JOINT RightHandPinky2
										{
											OFFSET -0.000000 3.350399 0.000000
											CHANNELS 3 Zrotation Yrotation Xrotation
											JOINT RightHandPinky3
											{
												OFFSET 0.000000 2.842763 0.000000
												CHANNELS 3 Zrotation Yrotation Xrotation
												JOINT RightHandPinky4
												{
													OFFSET 0.000000 2.639709 0.000000
													CHANNELS 3 Zrotation Yrotation Xrotation
													End Site
													{
														OFFSET 0.000000 0.000000 0.000000
													}
												}
											}
										}
									}
									JOINT RightForeArmEnd
									{
										OFFSET 0.000000 0.000000 0.000000
										CHANNELS 3 Zrotation Yrotation Xrotation
										End Site
										{
											OFFSET 0.000000 0.000000 0.000000
										}
									}
								}
								JOINT RightArmEnd
								{
									OFFSET 0.000000 0.000000 0.000000
									CHANNELS 3 Zrotation Yrotation Xrotation
									End Site
									{
										OFFSET 0.000000 0.000000 0.000000
									}
								}
							}
						}
					}
					JOINT LeftShoulder
					{
						OFFSET 2.625389 11.175210 0.000000
						CHANNELS 3 Zrotation Yrotation Xrotation
						JOINT LeftArm
						{
							OFFSET -0.000000 10.813635 -0.000000
							CHANNELS 3 Zrotation Yrotation Xrotation
							JOINT LeftForeArm
							{
								OFFSET -0.000000 28.724781 -0.000000
								CHANNELS 3 Zrotation Yrotation Xrotation
								JOINT LeftHand
								{
									OFFSET 0.644384 25.716167 -0.328871
									CHANNELS 3 Zrotation Yrotation Xrotation
									JOINT LeftHandThumb1
									{
										OFFSET 2.867323 3.959563 2.944291
										CHANNELS 3 Zrotation Yrotation Xrotation
										JOINT LeftHandThumb2
										{
											OFFSET 0.000000 3.350399 0.000000
											CHANNELS 3 Zrotation Yrotation Xrotation
											JOINT LeftHandThumb3
											{
												OFFSET -0.000000 3.756509 -0.000000
												CHANNELS 3 Zrotation Yrotation Xrotation
												JOINT LeftHandThumb4
												{
													OFFSET 0.000000 3.100000 0.000000
													CHANNELS 3 Zrotation Yrotation Xrotation
													End Site
													{
														OFFSET 0.000000 0.000000 0.000000
													}
												}
											}
										}
									}
									JOINT LeftHandIndex1
									{
										OFFSET 0.086752 10.030893 2.345280
										CHANNELS 3 Zrotation Yrotation Xrotation
										JOINT LeftHandIndex2
										{
											OFFSET 0.000000 4.061090 0.000000
											CHANNELS 3 Zrotation Yrotation Xrotation
											JOINT LeftHandIndex3
											{
												OFFSET -0.000000 3.248873 -0.000000
												CHANNELS 3 Zrotation Yrotation Xrotation
												JOINT LeftHandIndex4
												{
													OFFSET 0.000000 2.639709 0.000000
													CHANNELS 3 Zrotation Yrotation Xrotation
													End Site
													{
														OFFSET 0.000000 0.000000 0.000000
													}
												}
											}
										}
									}
									JOINT LeftHandMiddle1
									{
										OFFSET -0.104102 9.502952 0.006768
										CHANNELS 3 Zrotation Yrotation Xrotation
										JOINT LeftHandMiddle2
										{
											OFFSET -0.000000 4.568727 -0.000000
											CHANNELS 3 Zrotation Yrotation Xrotation
											JOINT LeftHandMiddle3
											{
												OFFSET -0.000000 3.654981 -0.000000
												CHANNELS 3 Zrotation Yrotation Xrotation
												JOINT LeftHandMiddle4
												{
													OFFSET 0.000000 2.741236 0.000000
													CHANNELS 3 Zrotation Yrotation Xrotation
													End Site
													{
														OFFSET 0.000000 0.000000 0.000000
													}
												}
											}
										}
									}
									JOINT LeftHandRing1
									{
										OFFSET -0.086752 8.921708 -2.267442
										CHANNELS 3 Zrotation Yrotation Xrotation
										JOINT LeftHandRing2
										{
											OFFSET 0.000000 4.061090 0.000000
											CHANNELS 3 Zrotation Yrotation Xrotation
											JOINT LeftHandRing3
											{
												OFFSET 0.000000 3.654981 -0.000000
												CHANNELS 3 Zrotation Yrotation Xrotation
												JOINT LeftHandRing4
												{
													OFFSET -0.000000 2.741236 -0.000000
													CHANNELS 3 Zrotation Yrotation Xrotation
													End Site
													{
														OFFSET 0.000000 0.000000 0.000000
													}
												}
											}
										}
									}
									JOINT LeftHandPinky1
									{
										OFFSET 0.173504 7.976997 -4.467199
										CHANNELS 3 Zrotation Yrotation Xrotation
										JOINT LeftHandPinky2
										{
											OFFSET -0.000000 3.350399 -0.000000
											CHANNELS 3 Zrotation Yrotation Xrotation
											JOINT LeftHandPinky3
											{
												OFFSET 0.000000 2.842763 -0.000000
												CHANNELS 3 Zrotation Yrotation Xrotation
												JOINT LeftHandPinky4
												{
													OFFSET -0.000000 2.639709 -0.000000
													CHANNELS 3 Zrotation Yrotation Xrotation
													End Site
													{
														OFFSET 0.000000 0.000000 0.000000
													}
												}
											}
										}
									}
									JOINT LeftForeArmEnd
									{
										OFFSET 0.000000 0.000000 0.000000
										CHANNELS 3 Zrotation Yrotation Xrotation
										End Site
										{
											OFFSET 0.000000 0.000000 0.000000
										}
									}
								}
								JOINT LeftArmEnd
								{
									OFFSET 0.000000 0.000000 0.000000
									CHANNELS 3 Zrotation Yrotation Xrotation
									End Site
									{
										OFFSET 0.000000 0.000000 0.000000
									}
								}
							}
						}
					}
				}
			}
		}
	}
	JOINT RightUpLeg
	{
		OFFSET -11.289943 -0.000000 0.000000
		CHANNELS 3 Zrotation Yrotation Xrotation
		JOINT RightLeg
		{
			OFFSET 0.000000 -38.200325 -0.000000
			CHANNELS 3 Zrotation Yrotation Xrotation
			JOINT RightFoot
			{
				OFFSET -0.000000 -39.900856 0.000000
				CHANNELS 3 Zrotation Yrotation Xrotation
				JOINT RightToeBase
				{
					OFFSET 0.000000 0.000000 15.261641
					CHANNELS 3 Zrotation Yrotation Xrotation
					JOINT RightToeBaseEnd
					{
						OFFSET 0.000000 0.000000 7.370709
						CHANNELS 3 Zrotation Yrotation Xrotation
						End Site
						{
							OFFSET 0.000000 0.000000 0.000000
						}
					}
				}
				JOINT RightLegEnd
				{
					OFFSET 0.000000 0.000000 0.000000
					CHANNELS 3 Zrotation Yrotation Xrotation
					End Site
					{
						OFFSET 0.000000 0.000000 0.000000
					}
				}
			}
			JOINT RightUpLegEnd
			{
				OFFSET 0.000000 0.000000 0.000000
				CHANNELS 3 Zrotation Yrotation Xrotation
				End Site
				{
					OFFSET 0.000000 0.000000 0.000000
				}
			}
		}
	}
	JOINT LeftUpLeg
	{
		OFFSET 11.315661 0.000000 0.000000
		CHANNELS 3 Zrotation Yrotation Xrotation
		JOINT LeftLeg
		{
			OFFSET 0.000000 -38.200325 -0.000000
			CHANNELS 3 Zrotation Yrotation Xrotation
			JOINT LeftFoot
			{
				OFFSET 0.000000 -39.900856 -0.000000
				CHANNELS 3 Zrotation Yrotation Xrotation
				JOINT LeftToeBase
				{
					OFFSET 0.000000 -0.000000 15.261641
					CHANNELS 3 Zrotation Yrotation Xrotation
					JOINT LeftToeBaseEnd
					{
						OFFSET -0.000000 0.000000 7.539996
						CHANNELS 3 Zrotation Yrotation Xrotation
						End Site
						{
							OFFSET 0.000000 0.000000 0.000000
						}
					}
				}
				JOINT LeftLegEnd
				{
					OFFSET 0.000000 0.000000 0.000000
					CHANNELS 3 Zrotation Yrotation Xrotation
					End Site
					{
						OFFSET 0.000000 0.000000 0.000000
					}
				}
			}
			JOINT LeftUpLegEnd
			{
				OFFSET 0.000000 0.000000 0.000000
				CHANNELS 3 Zrotation Yrotation Xrotation
				End Site
				{
					OFFSET 0.000000 0.000000 0.000000
				}
			}
		}
	}
}
MOTION
Frames: 5
Frame Time: 0.016667
-0.323350 88.288979 1.651935 -0.950149 -3.181727 -12.205820 -0.088770 0.072068 7.190845 0.063502 0.095515 1.642657 1.251853 -0.463182 6.540401 1.375134 0.045477 6.211335 -1.754589 1.131134 5.920522 0.213438 0.978581 -2.572307 -1.049290 -0.054111 -21.338224 0.000000 0.000000 0.000000 87.965759 -0.048127 4.006933 69.291634 0.831533 -0.985147 -0.483408 16.348946 87.361000 35.932537 48.700333 12.844419 6.620651 -1.298977 41.871243 -0.000001 0.000010 -15.750505 0.000000 0.000051 -11.014511 0.000003 -0.000004 0.000010 -3.705479 17.035868 6.933226 0.585538 -1.078231 0.269498 0.444150 -0.106782 0.219404 -0.000005 0.000032 -0.000010 -3.113865 7.036235 0.414182 0.659480 -1.034712 0.037032 0.778439 -0.047312 0.045546 -0.000001 0.000096 0.000001 5.641552 -8.804851 -8.005323 2.650607 2.011459 0.174998 2.640642 0.033036 0.143284 -0.000024 0.000032 0.000012 19.278967 -24.043966 -19.149515 5.644933 3.883285 1.707739 5.636594 -0.045337 1.407011 0.000258 0.000009 -0.000036 0.000000 0.000000 0.000000 0.000000 0.000000 0.000000 -91.036179 0.532117 7.532529 -70.931709 4.883929 -4.825976 0.781498 -18.071875 89.418152 -13.624815 -40.200058 6.036559 -7.979260 1.543905 41.087791 0.000010 0.000019 -19.427622 -0.000038 -0.000026 -13.636843 0.002227 0.000030 0.000138 -0.538115 16.628166 0.360676 -1.462346 -1.036734 0.057684 -1.443983 -0.068458 0.054774 -0.000003 -0.001356 0.000006 -1.515865 6.858707 -4.095451 -1.606513 -1.017561 0.045501 -1.314442 -0.031874 0.041071 -0.000717 -0.000005 0.000101 -2.845894 -8.725007 -10.845254 -2.544785 2.001670 -0.216259 -2.291655 0.012054 -0.162360 -0.000924 0.000007 -0.000001 0.416546 -24.765917 -19.800310 -3.505839 3.902049 -0.880639 -3.610212 -0.011652 -0.792730 0.000645 -0.000000 -0.000046 0.000000 0.000000 0.000000 0.000000 0.000000 0.000000 1.997703 5.224943 10.837758 -0.099390 -0.404629 10.273642 -4.802864 3.899646 15.828569 -0.264905 0.439293 -19.309904 0.000000 0.000000 0.000000 0.000000 0.000000 0.000000 0.000000 0.000000 0.000000 4.378977 13.650243 19.097429 0.096870 0.930626 4.355431 -0.350498 10.100350 14.560719 1.080050 -1.037923 -17.519207 0.000000 0.000000 0.000000 0.000000 0.000000 0.000000 0.000000 0.000000 0.000000 
-0.335521 88.284012 1.665137 -0.944560 -3.230547 -12.207388 -0.083860 0.076657 7.188428 0.076309 0.095454 1.653614 1.251458 -0.462014 6.532890 1.383953 0.050542 6.225165 -1.824022 1.157286 5.938794 0.207178 0.978354 -2.582421 -1.057971 -0.054762 -21.322678 0.000000 0.000000 0.000000 87.996918 -0.047840 3.973515 69.496483 0.601040 -1.152311 -0.491322 16.329035 87.413063 34.271824 47.797333 11.385036 6.490620 -1.276580 41.939007 -0.000000 0.000010 -15.416518 0.000000 0.000051 -10.784709 0.000003 -0.000004 0.000010 -4.371632 17.061420 7.219667 0.506226 -1.086448 0.309907 0.369143 -0.114665 0.256033 -0.000005 0.000032 -0.000010 -3.812908 7.046351 0.597161 0.552983 -1.038519 0.054788 0.670978 -0.050350 0.060189 -0.000001 0.000097 0.000001 4.877482 -8.823648 -7.991474 2.465507 2.017912 0.144440 2.454170 0.037782 0.119525 -0.000024 0.000078 0.000012 18.593670 -24.116503 -19.335133 5.416779 3.905629 1.606829 5.409584 -0.026701 1.322605 0.000253 0.000009 -0.000035 0.000000 0.000000 0.000000 0.000000 0.000000 0.000000 -91.070526 0.550746 7.476969 -71.170143 4.688086 -4.835529 0.776883 -18.175005 89.361214 -12.733526 -39.708965 5.314717 -7.799058 1.521546 41.170025 0.000010 0.000018 -18.991419 -0.000040 -0.000027 -13.338613 0.002231 0.000030 0.000082 0.335450 16.614439 0.570792 -1.179158 -1.046516 -0.006154 -1.164628 -0.078510 -0.002435 -0.000002 -0.001358 0.000006 -0.706072 6.854418 -3.974850 -1.311739 -1.021359 0.020407 -1.020447 -0.035365 0.020335 -0.000709 -0.000005 0.000100 -2.024809 -8.722124 -10.857804 -2.191049 2.008042 -0.181969 -1.941565 0.016824 -0.136409 -0.000938 0.000007 -0.000001 1.296431 -24.750334 -19.950689 -3.145540 3.918808 -0.780059 -3.255608 0.002590 -0.710620 0.000635 0.000000 -0.000046 0.000000 0.000000 0.000000 0.000000 0.000000 0.000000 2.009636 5.252193 10.794308 -0.099766 -0.405963 10.335350 -4.809215 3.876754 15.828080 -0.261577 0.434481 -19.327051 0.000000 0.000000 0.000000 0.000000 0.000000 0.000000 0.000000 0.000000 0.000000 4.379462 13.665427 19.151854 0.097412 0.935691 4.314075 -0.377859 10.105043 14.530148 1.083115 -1.046192 -17.515011 0.000000 0.000000 0.000000 0.000000 0.000000 0.000000 0.000000 0.000000 0.000000 
-0.348022 88.278954 1.676454 -0.940924 -3.268220 -12.205753 -0.080178 0.080365 7.188424 0.087682 0.095186 1.667044 1.253582 -0.467145 6.520770 1.392905 0.054529 6.239675 -1.890946 1.182082 5.940474 0.201717 0.978904 -2.593838 -1.065822 -0.055510 -21.302364 0.000000 0.000000 0.000000 88.025124 -0.049172 3.933673 69.693939 0.358367 -1.325473 -0.502551 16.308264 87.563751 32.606464 46.796886 9.948411 6.364685 -1.254338 42.005161 -0.000000 0.000010 -15.092783 -0.000000 0.000051 -10.562413 0.000003 -0.000004 0.000010 -5.025878 17.088654 7.468736 0.450217 -1.092167 0.341155 0.317212 -0.120093 0.284361 -0.000005 0.000032 -0.000010 -4.497802 7.057086 0.750099 0.470727 -1.041358 0.068966 0.587473 -0.052564 0.071892 -0.000001 0.000097 0.000002 4.130548 -8.843552 -7.997429 2.306568 2.022780 0.118668 2.293539 0.041329 0.099546 -0.000024 0.000121 0.000011 17.919708 -24.191236 -19.527212 5.210974 3.923249 1.519030 5.204850 -0.012127 1.248974 0.000248 0.000008 -0.000035 0.000000 0.000000 0.000000 0.000000 0.000000 0.000000 -91.102463 0.567413 7.420826 -71.386917 4.545915 -4.884237 0.773592 -18.261164 89.375092 -11.806705 -39.148865 4.611167 -7.639790 1.501461 41.242893 0.000010 0.000018 -18.606459 -0.000042 -0.000027 -13.074955 0.002216 0.000030 0.000012 1.090925 16.603346 0.737045 -0.969373 -1.053896 -0.058545 -0.958606 -0.086242 -0.049398 -0.000002 -0.001355 0.000006 0.000013 6.850847 -3.887559 -1.088553 -1.024206 -0.000306 -0.799044 -0.038099 0.003221 -0.000690 -0.000005 0.000099 -1.300220 -8.720199 -10.887134 -1.910283 2.012965 -0.153474 -1.664136 0.020583 -0.114828 -0.000961 0.000008 -0.000001 2.086158 -24.736801 -20.098297 -2.845680 3.931868 -0.695683 -2.960551 0.013851 -0.641699 0.000626 0.000000 -0.000046 0.000000 0.000000 0.000000 0.000000 0.000000 0.000000 2.017966 5.272624 10.749699 -0.100064 -0.407273 10.397764 -4.810767 3.848651 15.832092 -0.258879 0.430141 -19.346369 0.000000 0.000000 0.000000 0.000000 0.000000 0.000000 0.000000 0.000000 0.000000 4.379199 13.680367 19.193617 0.097941 0.939906 4.284229 -0.403347 10.103204 14.499677 1.084747 -1.053770 -17.509607 0.000000 0.000000 0.000000 0.000000 0.000000 0.000000 0.000000 0.000000 0.000000 
-0.360393 88.274200 1.685796 -0.939101 -3.295939 -12.202993 -0.075540 0.083159 7.191267 0.098241 0.094693 1.685155 1.257955 -0.476868 6.504889 1.399580 0.057734 6.255089 -1.956661 1.207087 5.923820 0.196673 0.979863 -2.608792 -1.072919 -0.056703 -21.280519 0.000000 0.000000 0.000000 88.050064 -0.051699 3.889990 69.882034 0.136432 -1.501978 -0.516285 16.281660 87.799583 31.000359 45.734779 8.607148 6.245571 -1.232920 42.067986 0.000000 0.000009 -14.786759 -0.000000 0.000051 -10.352262 0.000003 -0.000004 0.000010 -5.654696 17.116070 7.685120 0.415329 -1.096042 0.364687 0.286116 -0.123746 0.305689 -0.000005 0.000032 -0.000010 -5.154443 7.067727 0.878798 0.410514 -1.043449 0.080092 0.525492 -0.054161 0.081097 -0.000001 0.000097 0.000002 3.415652 -8.863282 -8.015642 2.172634 2.026422 0.097083 2.157661 0.043986 0.082909 -0.000023 0.000158 0.000011 17.268478 -24.264837 -19.714188 5.027751 3.937277 1.443105 5.022584 -0.000590 1.185118 0.000241 0.000008 -0.000034 0.000000 0.000000 0.000000 0.000000 0.000000 0.000000 -91.131134 0.581817 7.365964 -71.584579 4.435503 -4.962815 0.773632 -18.331215 89.455383 -10.886899 -38.550476 3.962570 -7.499691 1.483633 41.306976 0.000011 0.000018 -18.269278 -0.000043 -0.000027 -12.843232 0.002184 0.000029 -0.000066 1.746774 16.594641 0.870293 -0.815776 -1.059489 -0.101799 -0.808900 -0.092267 -0.088110 -0.000002 -0.001348 0.000006 0.616077 6.847797 -3.824619 -0.920385 -1.026332 -0.017508 -0.633086 -0.040263 -0.010997 -0.000664 -0.000005 0.000098 -0.663059 -8.718671 -10.927757 -1.686551 2.016800 -0.129621 -1.443170 0.023602 -0.096765 -0.000992 0.000008 -0.000001 2.790678 -24.723782 -20.241680 -2.594268 3.942217 -0.624197 -2.713052 0.022974 -0.583403 0.000620 0.000000 -0.000046 0.000000 0.000000 0.000000 0.000000 0.000000 0.000000 2.022818 5.284749 10.704795 -0.100312 -0.408631 10.459540 -4.807478 3.817656 15.839556 -0.257054 0.426329 -19.365986 0.000000 0.000000 0.000000 0.000000 0.000000 0.000000 0.000000 0.000000 0.000000 4.379641 13.696220 19.223337 0.098451 0.943170 4.265842 -0.426962 10.097144 14.471119 1.085129 -1.060409 -17.503424 0.000000 0.000000 0.000000 0.000000 0.000000 0.000000 0.000000 0.000000 0.000000 
-0.372374 88.270050 1.693224 -0.938527 -3.315360 -12.200233 -0.069579 0.084974 7.196846 0.108653 0.093704 1.707758 1.262753 -0.489471 6.486461 1.403802 0.060298 6.270437 -2.018703 1.232496 5.893090 0.192363 0.982041 -2.626436 -1.079322 -0.058545 -21.260042 0.000000 0.000000 0.000000 88.071892 -0.054779 3.845311 70.055725 -0.046994 -1.671746 -0.532335 16.247684 88.086189 29.475977 44.638519 7.380992 6.137951 -1.212986 42.125423 0.000000 0.000009 -14.509309 -0.000001 0.000051 -10.161954 0.000003 -0.000004 0.000010 -6.241631 17.144279 7.872845 0.400121 -1.098526 0.381567 0.274309 -0.125981 0.321016 -0.000005 0.000031 -0.000010 -5.766336 7.078520 0.988961 0.371424 -1.044988 0.088515 0.484073 -0.055254 0.088095 -0.000002 0.000097 0.000002 2.749514 -8.882935 -8.036666 2.063952 2.029156 0.079289 2.046855 0.045918 0.069307 -0.000023 0.000191 0.000012 16.654705 -24.337093 -19.883690 4.869000 3.948549 1.378470 4.864712 0.008440 1.130586 0.000232 0.000008 -0.000034 0.000000 0.000000 0.000000 0.000000 0.000000 0.000000 -91.156036 0.593573 7.314972 -71.764610 4.344185 -5.061013 0.777365 -18.388996 89.597267 -10.002576 -37.926472 3.386538 -7.378868 1.467979 41.362457 0.000011 0.000018 -17.979280 -0.000044 -0.000027 -12.643512 0.002139 0.000029 -0.000141 2.316022 16.589527 0.978298 -0.705347 -1.063745 -0.137425 -0.702293 -0.096969 -0.119879 -0.000003 -0.001339 0.000005 1.151847 6.845796 -3.778994 -0.795171 -1.027949 -0.031765 -0.510026 -0.041977 -0.022771 -0.000636 -0.000005 0.000096 -0.105869 -8.718038 -10.974110 -1.508371 2.019887 -0.109714 -1.267379 0.026031 -0.081696 -0.001027 0.000008 -0.000000 3.414717 -24.712994 -20.377693 -2.383709 3.950612 -0.563648 -2.505591 0.030377 -0.534246 0.000614 0.000000 -0.000046 0.000000 0.000000 0.000000 0.000000 0.000000 0.000000 2.024252 5.287751 10.661247 -0.100540 -0.410062 10.517579 -4.799740 3.784723 15.849397 -0.256203 0.423189 -19.384586 0.000000 0.000000 0.000000 0.000000 0.000000 0.000000 0.000000 0.000000 0.000000 4.381416 13.712155 19.241791 0.098916 0.945514 4.257892 -0.449701 10.088681 14.446089 1.084742 -1.066134 -17.497490 0.000000 0.000000 0.000000 0.000000 0.000000 0.000000 0.000000 0.000000 0.000000 
